<?xml version="1.0" encoding="UTF-8"?>
<!DOCTYPE svg PUBLIC "-//W3C//DTD SVG 1.1//EN" "http://www.w3.org/Graphics/SVG/1.1/DTD/svg11.dtd">
<!-- Creator: CorelDRAW 2020 (64 Bit) -->
<svg xmlns="http://www.w3.org/2000/svg" xml:space="preserve" width="25.7366mm" height="25.7366mm" version="1.1" style="shape-rendering:geometricPrecision; text-rendering:geometricPrecision; image-rendering:optimizeQuality; fill-rule:evenodd; clip-rule:evenodd"
viewBox="0 0 1.456 1.456"
 xmlns:xlink="http://www.w3.org/1999/xlink"
 xmlns:xodm="http://www.corel.com/coreldraw/odm/2003">
 <defs>
  <style type="text/css">
   <![CDATA[
    .fil0 {fill:#201E1E}
   ]]>
  </style>
 </defs>
 <g id="Camada_x0020_1">
  <metadata id="CorelCorpID_0Corel-Layer"/>
  <path class="fil0" d="M0.728 0c0.4021,0 0.728,0.3259 0.728,0.728 0,0.4021 -0.3259,0.728 -0.728,0.728 -0.4021,0 -0.728,-0.3259 -0.728,-0.728 0,-0.4021 0.3259,-0.728 0.728,-0.728zm0 0.0627c0.3674,0 0.6653,0.2979 0.6653,0.6653 0,0.2415 -0.1287,0.4529 -0.3212,0.5695l-0.0271 0c-0.0019,-0.005 -0.0026,-0.0146 -0.0049,-0.0206 -0.0025,-0.0063 -0.0068,-0.006 -0.0078,-0.0163 -0.0006,-0.0067 0.002,-0.012 0.0046,-0.0165 0.011,-0.0239 0.0121,-0.02 0.0131,-0.0456 0.0021,-0.0548 0.025,-0.1243 0.0118,-0.1635 -0.0039,-0.0137 -0.0054,-0.0271 -0.0045,-0.0403 0.0013,-0.0189 0.007,-0.0456 0.0127,-0.071 0.0049,-0.0218 0.0116,-0.0437 0.0105,-0.0662 -0.0009,-0.0178 -0.0042,-0.0156 -0.0205,-0.0327 0.005,-0.0177 0.0104,-0.0363 0.0154,-0.0549 0.0065,-0.0239 0.0176,-0.0632 0.0177,-0.0877 0,-0.003 -0.0002,-0.0059 -0.0006,-0.0089 -0.0066,-0.0481 -0.0185,-0.1017 -0.033,-0.148 0.0039,-0.0193 0.0023,-0.0385 -0.001,-0.06 0.0025,-0.0028 0.0041,-0.0054 0.005,-0.008 0.0113,-0 0.0226,0.0002 0.0339,0.0005 0.0055,0.0098 0.0168,0.0165 0.0299,0.0165 0.0184,0 0.0334,-0.0133 0.0334,-0.0298 0,-0.0164 -0.015,-0.0298 -0.0334,-0.0298 -0.0121,0 -0.0227,0.0057 -0.0285,0.0143 -0.0146,0.0006 -0.0293,0.0007 -0.0439,0.0005 -0.006,-0.0057 -0.0142,-0.0088 -0.0234,-0.0071 -0.0123,-0.0141 -0.0181,-0.001 -0.0228,-0.0058 -0.0076,-0.0077 -0.0276,-0.0063 -0.0317,0.0006 -0.0028,-0.0026 -0.0054,0.0018 -0.0079,0.0071l-0.0057 -0.0006 0 -0.0554c0,-0.0093 -0.0078,-0.0154 -0.017,-0.017l-0.029 -0.005c-0.0084,-0.0014 -0.0156,0.0061 -0.0168,0.0145 0.007,0.004 0.014,0.0117 0.0188,0.0218 0.0085,0.0179 0.0068,0.0364 -0.0036,0.0414 -0.0014,0.0006 -0.0028,0.001 -0.0043,0.0012l-0.5168 0 -0.0373 0.0239 0.0373 0.0248 0.5184 0c0.001,0.0002 0.0019,0.0005 0.0028,0.0009 0.0105,0.0049 0.0121,0.0235 0.0036,0.0414 -0.0044,0.0094 -0.0108,0.0168 -0.0173,0.0209 0.0028,0.0061 0.0087,0.0105 0.0154,0.0095l0.029 -0.0044c0.0092,-0.0014 0.017,-0.0077 0.017,-0.017l0 -0.0229c0.0001,-0.0002 0.0002,-0.0005 0.0002,-0.0009 0.0029,-0.0039 0.0058,-0.0077 0.0087,-0.0116 0.0086,0.012 0.023,0.0197 0.0304,0.03 0.0052,0.0072 0.005,0.0141 0.0056,0.0226 0.004,0.0535 -0.002,0.0941 0.0153,0.1368 -0.0207,0.0402 -0.0415,0.094 -0.056,0.145 -0.0221,0.0268 -0.0511,0.0667 -0.0826,0.118 -0.0067,0.0019 -0.0112,0.0012 -0.0132,-0.0027 -0.0051,-0.0096 0.0003,-0.0166 0.0085,-0.0203 0.0146,-0.0066 0.0265,-0.0196 0.0353,-0.0355 0.0267,-0.0481 0.0243,-0.0955 -0.0007,-0.1364 -0.019,-0.031 -0.0264,-0.0282 -0.0511,-0.0476 -0.0354,-0.0277 -0.023,-0.0235 -0.0698,-0.0331 -0.0232,-0.0015 -0.0449,-0.0086 -0.0664,-0.0162 -0.0068,-0.003 0.0037,0.0167 0,0.0195 -0.0445,-0.0021 -0.034,0.0035 -0.0552,0.0066 -0.0218,-0.0106 -0.033,-0.0088 -0.0439,-0.0123 -0.0023,-0.0007 -0.0043,-0.0015 -0.0061,-0.0024 -0.0057,0.0054 0.0032,0.0178 -0.0058,0.0172 -0.0113,-0.0003 -0.0249,-0.0065 -0.033,-0.0129 -0.0126,0.0064 0.0018,0.0187 0.0122,0.0319 0.0188,0.0237 0.0005,0.0334 -0.0239,0.0387 -0.0209,0.0045 -0.0411,-0.0016 -0.0556,-0.0083 0.0082,0.0349 0.0638,0.0401 0.0647,0.039 0.0043,0.0024 0.0084,0.0049 0.0115,0.0073 0.01,0.0075 0.0081,0.0155 -0.0038,0.019 -0.0236,-0.0034 -0.0266,0.0036 -0.0507,0.0041 -0.0101,0.0002 -0.0218,-0.0041 -0.0289,0.0041 -0.011,0.0128 -0.004,0.0155 -0.0276,0.0244 -0.0205,0.0128 0.0298,0.0128 0.0322,0.013 0.0219,0.0012 0.0424,0.0051 0.0619,0.0111 0.0149,0.008 0.0076,0.0132 -0.0079,0.0174 -0.0136,0.0044 -0.042,0.0093 -0.0489,0.0218 -0.0029,0.0051 -0.0023,0.0089 0.0029,0.0109 0.0137,0.0051 0.0222,-0.0098 0.0485,0.0055 0.0224,0.0121 0.0459,0.027 0.0705,0.0335 0.0209,0.0055 0.0369,0.0009 0.0505,0.0047 0.014,0.0039 0.0424,0.013 0.0431,0.0306 0.0002,0.0059 -0.0012,0.0166 -0.0167,0.0247 -0.0255,0.0121 -0.052,0.0044 -0.0845,0.0284 -0.0087,0.0064 -0.0034,0.016 -0.0046,0.0285 -0.0005,0.0054 -0.0021,0.0109 -0.0054,0.0165 -0.0063,0.0103 -0.053,0.0432 -0.0736,0.067 -0.0062,0.0072 -0.0134,0.0136 -0.0206,0.0201 -0.0218,0.0137 -0.0317,0.0178 -0.037,0.0248 -0.0325,0.0427 0.0103,0.0368 -0.0621,0.0828 -0.0135,0.0086 -0.0211,0.0212 -0.0286,0.0299l-0.0175 0c-0.1925,-0.1166 -0.3212,-0.328 -0.3212,-0.5695 0,-0.3674 0.2979,-0.6653 0.6653,-0.6653z"/>
 </g>
</svg>
